<svg width="167" height="68" viewBox="0 0 167 68" fill="none" xmlns="http://www.w3.org/2000/svg">
<g clipPath="url(#clip0_1527_5946)">
<path d="M149.505 68.0001H2.37317C1.05919 68.0001 0.0632468 67.2621 0.26411 66.4452L2.83348 56.2129C3.00086 55.5609 3.88801 55.0808 4.94254 55.0808H152.074C153.388 55.0808 154.384 55.8188 154.184 56.6357L151.614 66.868C151.447 67.52 150.56 68.0001 149.505 68.0001Z" fill="#195B35"/>
<path d="M142.374 17.9852C142.073 17.8204 142.023 17.4334 142.291 17.2257C144.433 15.4988 152.702 9.08571 157.539 7.55948C157.347 7.2442 136.089 14.1732 137.462 26.8918C137.462 26.8918 136.7 28.6832 135.512 26.8918C134.147 24.8353 139.328 17.5768 140.282 16.2655C140.374 16.1365 140.391 15.986 140.324 15.8356C139.746 14.5386 137.269 7.88909 145.438 4.04841C145.438 4.04841 148.024 2.44335 155.347 2.87328C159.908 3.1384 163.088 1.50468 164.846 0.236399C165.524 -0.258017 166.52 0.193406 166.495 0.981604C166.352 4.76496 165.055 12.7114 157.104 17.8204C157.104 17.8204 151.304 22.786 142.374 17.978V17.9852Z" fill="url(#paint0_linear_1527_5946)"/>
<path d="M34.8878 1.09629L34.3187 3.81915C34.1932 4.39955 33.5404 4.87247 32.8457 4.87247H18.3585C17.9484 4.87247 17.5467 5.15193 17.4797 5.50303L15.8226 13.3563C15.7473 13.7075 16.0235 13.9869 16.4419 13.9869H25.3134C25.4473 13.9869 25.5812 13.8938 25.6063 13.7719L25.9913 11.9376C26.0164 11.8229 25.9243 11.7226 25.782 11.7226H21.0116C20.6015 11.7226 20.3169 11.4432 20.3922 11.0921L21.0785 7.81747C21.1538 7.46636 21.5472 7.18691 21.9657 7.18691H32.3436C33.0298 7.18691 33.4985 7.65983 33.373 8.24023L31.3309 17.9207C31.2053 18.5011 30.5442 18.9741 29.8579 18.9741H29.2135L13.7638 18.9454C10.5165 18.9454 8.35721 16.7241 8.94306 13.9941L10.8429 4.99429C11.4287 2.26425 14.5337 0.0429688 17.781 0.0429688H33.8584C34.5531 0.0429688 35.005 0.515888 34.8878 1.09629Z" fill="#195B35"/>
<path d="M35.7666 18.9741C35.072 18.9741 34.6116 18.5012 34.7372 17.9208L38.2941 1.06772C38.4197 0.487323 39.0725 0.0144043 39.7671 0.0144043H55.5432C58.7821 0.0144043 60.9498 2.22852 60.3723 4.95856L59.4684 9.26498C59.075 11.1352 57.4849 12.7617 55.4763 13.5929C55.334 13.6502 55.2587 13.7935 55.3256 13.8939L57.9285 17.7704C58.2716 18.2934 57.8448 18.9168 57.1417 18.9168C54.9657 18.9168 53.6183 18.9741 52.7311 18.967C51.2163 18.9885 50.7141 18.9312 50.438 18.4582L48.0611 14.4814C47.9606 14.3094 47.7514 14.202 47.5003 14.202H42.4537C42.3197 14.202 42.1858 14.3023 42.1607 14.4169L41.4242 17.9137C41.2987 18.4941 40.6459 18.967 39.9512 18.967H35.7833L35.7666 18.9741ZM43.2404 9.25782C43.2153 9.37246 43.3073 9.47278 43.4496 9.47278H51.6097C52.2206 9.47278 52.8065 9.05002 52.9236 8.53411L53.5178 5.6966C53.6266 5.18068 53.2166 4.75792 52.6056 4.75792H44.4455C44.3116 4.75792 44.1777 4.85107 44.1526 4.96572L43.2487 9.25065L43.2404 9.25782Z" fill="#195B35"/>
<path d="M60.8828 17.9208L64.4397 1.05332C64.5653 0.472919 65.2264 0 65.9127 0H84.5511C84.9612 0 85.2458 0.286617 85.1704 0.630558L84.4172 4.20611C84.3419 4.55722 83.9485 4.83667 83.5301 4.83667H70.5744C70.4405 4.83667 70.3066 4.92982 70.2815 5.05163L69.8714 7.0078C69.8463 7.12244 69.9383 7.22276 70.0723 7.22276H80.492C80.9105 7.22276 81.1867 7.50221 81.1113 7.85332L80.4167 11.1351C80.3414 11.479 79.948 11.7656 79.5295 11.7656H69.1098C68.9759 11.7656 68.842 11.8588 68.8169 11.9806L68.4319 13.8006C68.4068 13.9153 68.4988 14.0156 68.6411 14.0156H81.5967C82.0152 14.0156 82.2914 14.295 82.2161 14.6462L81.4377 18.3507C81.3624 18.6946 80.9691 18.9812 80.5506 18.9812H61.9122C61.2176 18.9812 60.7572 18.5083 60.8744 17.9279L60.8828 17.9208Z" fill="#195B35"/>
<path d="M84.4423 17.9208L87.9993 1.05332C88.1248 0.472919 88.786 0 89.4723 0H108.111C108.521 0 108.805 0.286617 108.73 0.630558L107.977 4.20611C107.901 4.55722 107.508 4.83667 107.09 4.83667H94.134C94.0001 4.83667 93.8662 4.92982 93.841 5.05163L93.431 7.0078C93.4058 7.12244 93.4979 7.22276 93.6318 7.22276H104.052C104.47 7.22276 104.746 7.50221 104.671 7.85332L103.976 11.1351C103.901 11.479 103.508 11.7656 103.089 11.7656H92.6694C92.5354 11.7656 92.4015 11.8588 92.3764 11.9806L91.9914 13.8006C91.9663 13.9153 92.0584 14.0156 92.2007 14.0156H105.156C105.575 14.0156 105.851 14.295 105.776 14.6462L104.997 18.3507C104.922 18.6946 104.529 18.9812 104.11 18.9812H85.4718C84.7771 18.9812 84.3168 18.5083 84.434 17.9279L84.4423 17.9208Z" fill="#195B35"/>
<path d="M116.647 8.43369L114.647 17.9207C114.522 18.5011 113.869 18.9741 113.174 18.9741H109.031C108.337 18.9741 107.876 18.5011 108.002 17.9207L111.55 1.09629C111.676 0.515888 112.329 0.0429688 113.023 0.0429688H118.304C118.673 0.0429688 118.991 0.179112 119.183 0.415571L125.435 9.93844C125.594 10.1391 125.954 10.0817 126.004 9.85245L127.854 1.09629C127.979 0.515888 128.632 0.0429688 129.327 0.0429688H133.47C134.156 0.0429688 134.616 0.515888 134.499 1.09629L130.95 17.9207C130.825 18.5011 130.172 18.9741 129.477 18.9741H124.899C124.531 18.9741 124.213 18.8379 124.021 18.6014L117.208 8.34771C117.049 8.14708 116.689 8.2044 116.639 8.43369H116.647Z" fill="#195B35"/>
<path d="M40.671 25.0717L39.8173 29.0916C39.6332 29.9514 38.6624 30.6465 37.6413 30.6465H28.6276C28.4267 30.6465 28.2259 30.7898 28.1924 30.9546L24.1835 49.943C23.9994 50.8028 23.0286 51.4979 22.0075 51.4979H15.8394C14.8183 51.4979 14.1404 50.8028 14.3245 49.943L18.3334 30.9546C18.3752 30.7826 18.233 30.6465 18.0321 30.6465H9.01839C7.99734 30.6465 7.31942 29.9514 7.50355 29.0916L8.34885 25.0717C8.53297 24.2119 9.50381 23.5168 10.5249 23.5168H39.1645C40.1856 23.5168 40.8635 24.2119 40.6794 25.0717H40.671Z" fill="#217946"/>
<path d="M38.3945 49.9431L43.6587 25.0217C43.8429 24.1618 44.8137 23.4668 45.8348 23.4668H73.3697C73.9806 23.4668 74.3907 23.8896 74.2819 24.3983L73.1688 29.6792C73.06 30.1951 72.4742 30.6179 71.8632 30.6179H52.7227C52.5218 30.6179 52.321 30.7612 52.2875 30.9332L51.6849 33.8209C51.6514 33.9928 51.7853 34.1361 51.9862 34.1361H67.3773C67.9882 34.1361 68.3983 34.5517 68.2895 35.0676L67.2685 39.9186C67.1597 40.4346 66.5738 40.8501 65.9629 40.8501H50.5718C50.3709 40.8501 50.17 40.9935 50.1366 41.1654L49.5675 43.8596C49.534 44.0316 49.6679 44.1749 49.8688 44.1749H69.0009C69.6119 44.1749 70.022 44.5905 69.9132 45.1064L68.7582 50.5808C68.6494 51.0967 68.0636 51.5123 67.4526 51.5123H39.9177C38.8966 51.5123 38.2103 50.8173 38.3861 49.9574L38.3945 49.9431Z" fill="#217946"/>
<path d="M70.9927 49.549L89.9157 25.0002C90.8781 23.8896 92.1084 23.6173 93.7739 23.56V23.5886C93.7739 23.5886 93.7907 23.5886 93.799 23.5886V23.5671C94.2593 23.5528 94.7531 23.5528 95.2888 23.5671H95.5398C95.7323 23.5671 95.8997 23.5671 96.0922 23.5671C96.7785 23.5671 97.5234 23.5815 98.3938 23.5815C98.3938 23.5815 100.017 23.5385 100.62 25.0146L109.968 49.5634C110.127 49.9718 110.019 50.4662 109.701 50.8603C109.374 51.2616 108.88 51.5052 108.395 51.5052H100.938C100.419 51.5052 99.9923 51.2257 99.8416 50.7886L99.0047 48.4742H83.2286L82.5926 49.3126L81.3623 50.7958C81.0024 51.2257 80.4082 51.5052 79.8307 51.5052H71.9552C71.4028 51.5052 70.9425 51.2616 70.7417 50.8603C70.5408 50.459 70.6329 49.9646 70.9844 49.5562L70.9927 49.549ZM88.3422 41.796H96.6195L93.9329 34.5016L88.3506 41.796H88.3422Z" fill="#217946"/>
<path d="M127.318 23.5312C128.038 23.5312 128.615 23.8824 128.799 24.4341L134.382 41.7458C134.491 42.0754 135.009 42.1471 135.219 41.8676L148.794 24.4341C149.212 23.8824 149.94 23.5312 150.66 23.5312H157.807C158.828 23.5312 159.506 24.2263 159.322 25.0861L154.075 49.943C153.891 50.8029 152.92 51.498 151.899 51.498H146.333C145.312 51.498 144.634 50.8029 144.81 49.943L146.911 39.9974L138.633 50.5951C138.215 51.1468 137.487 51.498 136.767 51.498H129.394C128.674 51.498 128.096 51.1468 127.912 50.5951L124.096 40.0476L122.004 49.943C121.828 50.8029 120.849 51.498 119.836 51.498H114.27C113.249 51.498 112.571 50.8029 112.747 49.943L117.995 25.0861C118.171 24.2263 119.15 23.5312 120.171 23.5312H127.318Z" fill="#217946"/>
<path d="M17.1701 59.3585C15.0527 61.8879 15.5883 61.243 13.2617 64.0447C13.1696 64.1594 13.0022 64.2382 12.8599 64.2382H10.8262C10.6839 64.2382 10.5835 64.1594 10.5835 64.0447C10.5919 61.1284 10.5919 61.8664 10.5835 59.3585C10.5835 59.2439 10.7258 59.1292 10.8681 59.1292H12.2406C12.3829 59.1292 12.4833 59.2081 12.4833 59.3155V62.4898C12.4833 62.5543 12.5838 62.5758 12.634 62.5113L15.3038 59.3155C15.3958 59.2009 15.5548 59.1221 15.6971 59.1221H17.0697C17.212 59.1221 17.2622 59.2367 17.1701 59.3514V59.3585Z" fill="white" stroke="white" strokeWidth="0.17" stroke-miterlimit="10"/>
<path d="M19.84 59.1292H20.9698C21.1539 59.1292 21.2544 59.2581 21.1874 59.4158L19.8065 62.7334C19.7646 62.8265 19.8232 62.9053 19.9404 62.9053H22.6855C22.8697 62.9053 22.9701 63.0343 22.9031 63.192L22.5851 63.9658C22.5181 64.1235 22.3173 64.2524 22.1332 64.2524H17.7225C17.5384 64.2524 17.438 64.1235 17.5049 63.9658L19.3964 59.4229C19.4634 59.2653 19.6642 59.1363 19.8483 59.1363L19.84 59.1292Z" fill="white" stroke="white" strokeWidth="0.17" stroke-miterlimit="10"/>
<path d="M32.8123 60.4404L31.7829 62.8982C31.4733 63.6362 30.5192 64.231 29.6404 64.231H26.2006C25.3218 64.231 24.8615 63.6362 25.1712 62.8982L26.2006 60.4404C26.5103 59.7024 27.4644 59.1077 28.3431 59.1077H31.7829C32.6617 59.1077 33.122 59.7024 32.8123 60.4404ZM30.9376 60.5981C30.9795 60.5049 30.9209 60.4261 30.8037 60.4261H28.2092C28.1004 60.4261 27.9749 60.5049 27.933 60.5981L27.0459 62.7262C27.0041 62.8194 27.0626 62.8982 27.1798 62.8982H29.7743C29.8831 62.8982 30.0086 62.8194 30.0505 62.7262L30.9376 60.5981Z" fill="white" stroke="white" strokeWidth="0.17" stroke-miterlimit="10"/>
<path d="M33.9255 63.9514L35.8254 59.4014C35.8923 59.2437 36.0932 59.1147 36.2857 59.1147H41.3156C41.4244 59.1147 41.483 59.1936 41.4495 59.2867L41.0478 60.254C41.0059 60.3472 40.8888 60.426 40.7716 60.426H37.2732C37.2732 60.426 37.1979 60.4547 37.1812 60.4833L36.9636 61.0136C36.9636 61.0136 36.9636 61.0709 37.0054 61.0709H39.8175C39.9263 61.0709 39.9849 61.1497 39.9514 61.2429L39.5832 62.1242C39.5413 62.2174 39.4241 62.2962 39.307 62.2962H36.4949C36.4949 62.2962 36.4196 62.3249 36.4028 62.3535L36.202 62.8479C36.202 62.8479 36.202 62.9053 36.2438 62.9053H39.7422C39.851 62.9053 39.9096 62.9841 39.8761 63.0772L39.4576 64.0804C39.4158 64.1735 39.2986 64.2524 39.1814 64.2524H34.1515C33.9674 64.2524 33.8669 64.1234 33.9339 63.9657L33.9255 63.9514Z" fill="white" stroke="white" strokeWidth="0.17" stroke-miterlimit="10"/>
<path d="M41.985 63.9516L43.8849 59.4015C43.9518 59.2439 44.1527 59.1221 44.3368 59.1221H48.5968C49.4755 59.1221 49.9358 59.7168 49.6262 60.4548L49.1408 61.6156C48.9315 62.1172 48.4126 62.5615 47.8268 62.7836C47.7849 62.7979 47.7598 62.8338 47.7682 62.8624L48.2536 63.9086C48.3206 64.0519 48.1699 64.2167 47.9774 64.2167C47.3916 64.2167 47.0233 64.231 46.789 64.231C46.3789 64.231 46.245 64.2239 46.1948 64.0949L45.7763 63.0201C45.7596 62.9699 45.7094 62.9412 45.6424 62.9412H44.2782C44.2782 62.9412 44.2029 62.9699 44.1861 62.9986L43.7928 63.9444C43.7258 64.102 43.525 64.231 43.3409 64.231H42.2194C42.0352 64.231 41.9348 64.102 42.0018 63.9444L41.985 63.9516ZM44.7636 61.6156C44.7636 61.6156 44.7636 61.673 44.8055 61.673H47.0066C47.174 61.673 47.3497 61.5583 47.4083 61.4222L47.7264 60.6555C47.7849 60.5122 47.7012 60.4047 47.5339 60.4047H45.3327C45.3327 60.4047 45.2574 60.4333 45.2407 60.462L44.7553 61.6156H44.7636Z" fill="white" stroke="white" strokeWidth="0.17" stroke-miterlimit="10"/>
<path d="M50.7475 63.9514L52.6474 59.4014C52.7143 59.2437 52.9152 59.1147 53.1077 59.1147H58.1376C58.2464 59.1147 58.305 59.1936 58.2715 59.2867L57.8698 60.254C57.828 60.3472 57.7108 60.426 57.5936 60.426H54.0953C54.0953 60.426 54.0199 60.4547 54.0032 60.4833L53.7856 61.0136C53.7856 61.0136 53.7856 61.0709 53.8274 61.0709H56.6395C56.7483 61.0709 56.8069 61.1497 56.7734 61.2429L56.4052 62.1242C56.3633 62.2174 56.2462 62.2962 56.129 62.2962H53.3169C53.3169 62.2962 53.2416 62.3249 53.2249 62.3535L53.024 62.8479C53.024 62.8479 53.024 62.9053 53.0658 62.9053H56.5642C56.673 62.9053 56.7316 62.9841 56.6981 63.0772L56.2796 64.0804C56.2378 64.1735 56.1206 64.2524 56.0035 64.2524H50.9735C50.7894 64.2524 50.689 64.1234 50.7559 63.9657L50.7475 63.9514Z" fill="white" stroke="white" strokeWidth="0.17" stroke-miterlimit="10"/>
<path d="M61.6695 61.3934L60.5982 63.9514C60.5313 64.1091 60.3304 64.238 60.1463 64.238H59.0248C58.8407 64.238 58.7402 64.1091 58.8072 63.9514L60.6986 59.4085C60.7656 59.2509 60.9665 59.1219 61.1506 59.1219H62.5734C62.6738 59.1219 62.7491 59.1577 62.791 59.2222L63.9459 61.7875C63.9794 61.8448 64.0798 61.8233 64.1049 61.766L65.0925 59.4014C65.1595 59.2437 65.3603 59.1147 65.5445 59.1147H66.6659C66.8501 59.1147 66.9505 59.2437 66.8835 59.4014L64.9921 63.9442C64.9251 64.1019 64.7243 64.2309 64.5401 64.2309H63.3015C63.2011 64.2309 63.1257 64.195 63.0839 64.1306L61.8118 61.3647C61.7783 61.3074 61.6778 61.3217 61.6527 61.3862L61.6695 61.3934Z" fill="white" stroke="white" strokeWidth="0.17" stroke-miterlimit="10"/>
<path d="M80.2494 61.25L79.8895 62.1242C79.856 62.203 79.7639 62.2675 79.6635 62.2675H79.0023C79.0023 62.2675 78.994 62.3177 78.9856 62.3464C78.9689 62.418 78.9437 62.4968 78.9019 62.5828L78.8266 62.7691L78.768 62.9124C78.7429 62.9697 78.7178 63.0342 78.6843 63.0916C78.3161 63.7436 77.4624 64.2452 76.6757 64.2452H74.5164C73.7966 64.2452 73.3614 63.8224 73.4284 63.2492C73.4451 63.1417 73.4702 63.0342 73.5205 62.9196L73.5958 62.7333L73.646 62.6115C73.646 62.6115 73.646 62.5971 73.646 62.59C73.6795 62.5112 73.7129 62.4323 73.7548 62.3678C73.7966 62.289 73.8385 62.2102 73.8971 62.1314C73.9389 62.0741 73.9891 62.0167 74.0394 61.9594C74.2402 61.7373 74.4327 61.6298 74.4997 61.5868C74.3825 61.4077 74.3658 61.1712 74.4662 60.9133C74.4662 60.8989 74.4829 60.8918 74.4829 60.8774L74.5499 60.7126L74.6754 60.4117C74.9683 59.7095 75.8639 59.1362 76.684 59.1362H78.701C79.4375 59.1362 79.8644 59.5948 79.7305 60.2039C79.7054 60.3185 79.5798 60.4117 79.4459 60.4117H76.7677C76.6004 60.4117 76.4246 60.5263 76.366 60.6696L76.3074 60.8129C76.2488 60.9563 76.3325 61.0637 76.4999 61.0637H80.0987C80.2242 61.0637 80.2996 61.1569 80.2494 61.2644V61.25ZM76.9435 62.2675H75.8722C75.7048 62.2675 75.5291 62.3822 75.4705 62.5255L75.4119 62.6616C75.3533 62.8049 75.437 62.9196 75.6044 62.9196H76.6757C76.8431 62.9196 77.0188 62.8049 77.0774 62.6616L77.136 62.5255C77.1946 62.3822 77.1109 62.2675 76.9435 62.2675Z" fill="white" stroke="white" strokeWidth="0.17" stroke-miterlimit="10"/>
<path d="M94.452 59.4087L94.1423 60.1396C94.0754 60.2972 93.8745 60.4262 93.6904 60.4262H92.0417C92.0417 60.4262 91.9663 60.4548 91.9496 60.4835L90.5017 63.9516C90.4348 64.1092 90.2339 64.2382 90.0498 64.2382H88.9199C88.7358 64.2382 88.6354 64.1092 88.7023 63.9516L90.1502 60.4835C90.1502 60.4835 90.1502 60.4262 90.1083 60.4262H88.4596C88.2755 60.4262 88.175 60.2972 88.242 60.1396L88.5433 59.4087C88.6103 59.251 88.8111 59.1221 88.9952 59.1221H94.226C94.4102 59.1221 94.5106 59.251 94.4436 59.4087H94.452Z" fill="white" stroke="white" strokeWidth="0.17" stroke-miterlimit="10"/>
<path d="M94.8036 63.9516L96.7035 59.4015C96.7704 59.2439 96.9713 59.1221 97.1554 59.1221H101.415C102.294 59.1221 102.754 59.7168 102.445 60.4548L101.959 61.6156C101.75 62.1172 101.231 62.5615 100.645 62.7836C100.604 62.7979 100.578 62.8338 100.587 62.8624L101.072 63.9086C101.139 64.0519 100.989 64.2167 100.796 64.2167C100.21 64.2167 99.8419 64.231 99.6076 64.231C99.1975 64.231 99.0636 64.2239 99.0134 64.0949L98.5949 63.0201C98.5782 62.9699 98.528 62.9412 98.461 62.9412H97.0968C97.0968 62.9412 97.0215 62.9699 97.0048 62.9986L96.6114 63.9444C96.5444 64.102 96.3436 64.231 96.1595 64.231H95.038C94.8538 64.231 94.7534 64.102 94.8204 63.9444L94.8036 63.9516ZM97.5822 61.6156C97.5822 61.6156 97.5822 61.673 97.6241 61.673H99.8252C99.9926 61.673 100.168 61.5583 100.227 61.4222L100.545 60.6555C100.604 60.5122 100.52 60.4047 100.352 60.4047H98.1513C98.1513 60.4047 98.076 60.4333 98.0593 60.462L97.5739 61.6156H97.5822Z" fill="white" stroke="white" strokeWidth="0.17" stroke-miterlimit="10"/>
<path d="M103.181 63.8799L107.558 59.3943C107.776 59.1937 108.01 59.1435 108.32 59.1292C108.404 59.1292 108.496 59.1292 108.596 59.1292H108.638C108.638 59.1292 108.705 59.1292 108.738 59.1292C108.864 59.1292 108.998 59.1292 109.157 59.1292C109.157 59.1292 109.458 59.122 109.508 59.3871L110.295 63.8727C110.312 63.9443 110.27 64.0375 110.195 64.1092C110.119 64.1808 110.019 64.2238 109.935 64.2238H108.571C108.479 64.2238 108.412 64.1736 108.395 64.0948L108.328 63.6721H105.449L105.299 63.8225L105.014 64.0948C104.93 64.1736 104.813 64.2238 104.704 64.2238H103.265C103.164 64.2238 103.089 64.1808 103.072 64.1092C103.056 64.0375 103.089 63.9443 103.164 63.8727L103.181 63.8799ZM106.638 62.4611H108.152L107.935 61.1283L106.638 62.4611Z" fill="white" stroke="white" strokeWidth="0.17" stroke-miterlimit="10"/>
<path d="M119.66 61.6156C119.351 62.3537 118.397 62.9484 117.518 62.9484H114.789C114.789 62.9484 114.714 62.9771 114.697 63.0057L114.304 63.9516C114.237 64.1092 114.036 64.2382 113.852 64.2382H112.731C112.546 64.2382 112.446 64.1092 112.513 63.9516L114.404 59.4087C114.471 59.251 114.672 59.1221 114.856 59.1221H119.108C119.987 59.1221 120.447 59.7168 120.137 60.4548L119.652 61.6156H119.66ZM118.053 60.4047H115.852C115.852 60.4047 115.777 60.4333 115.76 60.462L115.275 61.6156C115.275 61.6156 115.275 61.673 115.317 61.673H117.518C117.685 61.673 117.861 61.5583 117.928 61.4222L118.246 60.6555C118.305 60.5122 118.212 60.4047 118.053 60.4047Z" fill="white" stroke="white" strokeWidth="0.17" stroke-miterlimit="10"/>
<path d="M128.272 61.6156C127.963 62.3537 127.008 62.9484 126.13 62.9484H123.401C123.401 62.9484 123.326 62.9771 123.309 63.0057L122.916 63.9516C122.849 64.1092 122.648 64.2382 122.464 64.2382H121.342C121.158 64.2382 121.058 64.1092 121.125 63.9516L123.016 59.4087C123.083 59.251 123.284 59.1221 123.468 59.1221H127.72C128.599 59.1221 129.059 59.7168 128.749 60.4548L128.264 61.6156H128.272ZM126.674 60.4047H124.473C124.473 60.4047 124.397 60.4333 124.38 60.462L123.895 61.6156C123.895 61.6156 123.895 61.673 123.937 61.673H126.138C126.305 61.673 126.481 61.5583 126.548 61.4222L126.866 60.6555C126.925 60.5122 126.833 60.4047 126.674 60.4047Z" fill="white" stroke="white" strokeWidth="0.17" stroke-miterlimit="10"/>
<path d="M129.737 63.9514L131.637 59.4014C131.704 59.2437 131.905 59.1147 132.097 59.1147H137.127C137.236 59.1147 137.295 59.1936 137.261 59.2867L136.859 60.254C136.817 60.3472 136.7 60.426 136.583 60.426H133.085C133.085 60.426 133.009 60.4547 132.993 60.4833L132.775 61.0136C132.775 61.0136 132.775 61.0709 132.817 61.0709H135.629C135.738 61.0709 135.796 61.1497 135.763 61.2429L135.395 62.1242C135.353 62.2174 135.236 62.2962 135.118 62.2962H132.306C132.306 62.2962 132.231 62.3249 132.214 62.3535L132.013 62.8479C132.013 62.8479 132.013 62.9053 132.055 62.9053H135.554C135.662 62.9053 135.721 62.9841 135.688 63.0772L135.269 64.0804C135.227 64.1735 135.11 64.2524 134.993 64.2524H129.963C129.779 64.2524 129.678 64.1234 129.745 63.9657L129.737 63.9514Z" fill="white" stroke="white" strokeWidth="0.17" stroke-miterlimit="10"/>
<path d="M140.659 61.3934L139.587 63.9514C139.521 64.1091 139.32 64.238 139.136 64.238H138.014C137.83 64.238 137.729 64.1091 137.796 63.9514L139.688 59.4085C139.755 59.2509 139.956 59.1219 140.14 59.1219H141.563C141.663 59.1219 141.738 59.1577 141.78 59.2222L142.935 61.7875C142.969 61.8448 143.069 61.8233 143.094 61.766L144.082 59.4014C144.149 59.2437 144.35 59.1147 144.534 59.1147H145.655C145.839 59.1147 145.94 59.2437 145.873 59.4014L143.981 63.9442C143.914 64.1019 143.714 64.2309 143.529 64.2309H142.291C142.19 64.2309 142.115 64.195 142.073 64.1306L140.801 61.3647C140.768 61.3074 140.667 61.3217 140.642 61.3862L140.659 61.3934Z" fill="white" stroke="white" strokeWidth="0.17" stroke-miterlimit="10"/>
</g>
<defs>
<linearGradient id="paint0_linear_1527_5946" x1="135.294" y1="13.8722" x2="166.495" y2="13.8722" gradientUnits="userSpaceOnUse">
<stop offset="0.03" stop-color="#217946"/>
<stop offset="1" stop-color="#195B35"/>
</linearGradient>
<clipPath id="clip0_1527_5946">
<rect width="166.256" height="68" fill="white" transform="translate(0.239014)"/>
</clipPath>
</defs>
</svg>
